<?xml version="1.0" encoding="UTF-8" standalone="no"?>
<!DOCTYPE svg PUBLIC "-//W3C//DTD SVG 1.1//EN"
 "http://www.w3.org/Graphics/SVG/1.1/DTD/svg11.dtd">
<!-- Generated by graphviz version 2.43.0 (0)
 -->
<!-- Title: %3 Pages: 1 -->
<svg width="3761pt" height="476pt"
 viewBox="0.00 0.00 3760.66 476.00" xmlns="http://www.w3.org/2000/svg" xmlns:xlink="http://www.w3.org/1999/xlink">
<g id="graph0" class="graph" transform="scale(1 1) rotate(0) translate(4 472)">
<title>%3</title>
<polygon fill="white" stroke="transparent" points="-4,4 -4,-472 3756.66,-472 3756.66,4 -4,4"/>
<!-- [root] module.website_s3_bucket.aws_s3_bucket.s3_bucket (expand) -->
<g id="node1" class="node">
<title>[root] module.website_s3_bucket.aws_s3_bucket.s3_bucket (expand)</title>
<polygon fill="none" stroke="black" points="2126.98,-180 1817.98,-180 1817.98,-144 2126.98,-144 2126.98,-180"/>
<text text-anchor="middle" x="1972.48" y="-158.3" font-family="Times,serif" font-size="14.00">module.website_s3_bucket.aws_s3_bucket.s3_bucket</text>
</g>
<!-- [root] provider[&quot;registry.terraform.io/hashicorp/aws&quot;] -->
<g id="node8" class="node">
<title>[root] provider[&quot;registry.terraform.io/hashicorp/aws&quot;]</title>
<polygon fill="none" stroke="black" points="1509.48,-108 1256.94,-90 1509.48,-72 1762.02,-90 1509.48,-108"/>
<text text-anchor="middle" x="1509.48" y="-86.3" font-family="Times,serif" font-size="14.00">provider[&quot;registry.terraform.io/hashicorp/aws&quot;]</text>
</g>
<!-- [root] module.website_s3_bucket.aws_s3_bucket.s3_bucket (expand)&#45;&gt;[root] provider[&quot;registry.terraform.io/hashicorp/aws&quot;] -->
<g id="edge11" class="edge">
<title>[root] module.website_s3_bucket.aws_s3_bucket.s3_bucket (expand)&#45;&gt;[root] provider[&quot;registry.terraform.io/hashicorp/aws&quot;]</title>
<path fill="none" stroke="black" d="M1859.81,-143.97C1778.64,-131.69 1670.73,-115.38 1596.23,-104.12"/>
<polygon fill="black" stroke="black" points="1596.36,-100.59 1585.94,-102.56 1595.31,-107.52 1596.36,-100.59"/>
</g>
<!-- [root] module.website_s3_bucket.var.bucket_name (expand) -->
<g id="node16" class="node">
<title>[root] module.website_s3_bucket.var.bucket_name (expand)</title>
<ellipse fill="none" stroke="black" cx="2408.48" cy="-90" rx="225.56" ry="18"/>
<text text-anchor="middle" x="2408.48" y="-86.3" font-family="Times,serif" font-size="14.00">[root] module.website_s3_bucket.var.bucket_name (expand)</text>
</g>
<!-- [root] module.website_s3_bucket.aws_s3_bucket.s3_bucket (expand)&#45;&gt;[root] module.website_s3_bucket.var.bucket_name (expand) -->
<g id="edge9" class="edge">
<title>[root] module.website_s3_bucket.aws_s3_bucket.s3_bucket (expand)&#45;&gt;[root] module.website_s3_bucket.var.bucket_name (expand)</title>
<path fill="none" stroke="black" d="M2078.58,-143.97C2146.81,-133.01 2235.11,-118.84 2303.18,-107.91"/>
<polygon fill="black" stroke="black" points="2303.75,-111.36 2313.07,-106.32 2302.64,-104.45 2303.75,-111.36"/>
</g>
<!-- [root] module.website_s3_bucket.var.tags (expand) -->
<g id="node17" class="node">
<title>[root] module.website_s3_bucket.var.tags (expand)</title>
<ellipse fill="none" stroke="black" cx="1972.48" cy="-90" rx="192.27" ry="18"/>
<text text-anchor="middle" x="1972.48" y="-86.3" font-family="Times,serif" font-size="14.00">[root] module.website_s3_bucket.var.tags (expand)</text>
</g>
<!-- [root] module.website_s3_bucket.aws_s3_bucket.s3_bucket (expand)&#45;&gt;[root] module.website_s3_bucket.var.tags (expand) -->
<g id="edge10" class="edge">
<title>[root] module.website_s3_bucket.aws_s3_bucket.s3_bucket (expand)&#45;&gt;[root] module.website_s3_bucket.var.tags (expand)</title>
<path fill="none" stroke="black" d="M1972.48,-143.7C1972.48,-135.98 1972.48,-126.71 1972.48,-118.11"/>
<polygon fill="black" stroke="black" points="1975.98,-118.1 1972.48,-108.1 1968.98,-118.1 1975.98,-118.1"/>
</g>
<!-- [root] module.website_s3_bucket.aws_s3_bucket_acl.s3_bucket_acl (expand) -->
<g id="node2" class="node">
<title>[root] module.website_s3_bucket.aws_s3_bucket_acl.s3_bucket_acl (expand)</title>
<polygon fill="none" stroke="black" points="1952.48,-324 1598.48,-324 1598.48,-288 1952.48,-288 1952.48,-324"/>
<text text-anchor="middle" x="1775.48" y="-302.3" font-family="Times,serif" font-size="14.00">module.website_s3_bucket.aws_s3_bucket_acl.s3_bucket_acl</text>
</g>
<!-- [root] module.website_s3_bucket.aws_s3_bucket_ownership_controls.s3_bucket_acl_ownership (expand) -->
<g id="node3" class="node">
<title>[root] module.website_s3_bucket.aws_s3_bucket_ownership_controls.s3_bucket_acl_ownership (expand)</title>
<polygon fill="none" stroke="black" points="2057.48,-252 1549.48,-252 1549.48,-216 2057.48,-216 2057.48,-252"/>
<text text-anchor="middle" x="1803.48" y="-230.3" font-family="Times,serif" font-size="14.00">module.website_s3_bucket.aws_s3_bucket_ownership_controls.s3_bucket_acl_ownership</text>
</g>
<!-- [root] module.website_s3_bucket.aws_s3_bucket_acl.s3_bucket_acl (expand)&#45;&gt;[root] module.website_s3_bucket.aws_s3_bucket_ownership_controls.s3_bucket_acl_ownership (expand) -->
<g id="edge12" class="edge">
<title>[root] module.website_s3_bucket.aws_s3_bucket_acl.s3_bucket_acl (expand)&#45;&gt;[root] module.website_s3_bucket.aws_s3_bucket_ownership_controls.s3_bucket_acl_ownership (expand)</title>
<path fill="none" stroke="black" d="M1782.4,-287.7C1785.55,-279.81 1789.36,-270.3 1792.86,-261.55"/>
<polygon fill="black" stroke="black" points="1796.17,-262.69 1796.64,-252.1 1789.67,-260.09 1796.17,-262.69"/>
</g>
<!-- [root] module.website_s3_bucket.aws_s3_bucket_ownership_controls.s3_bucket_acl_ownership (expand)&#45;&gt;[root] module.website_s3_bucket.aws_s3_bucket.s3_bucket (expand) -->
<g id="edge13" class="edge">
<title>[root] module.website_s3_bucket.aws_s3_bucket_ownership_controls.s3_bucket_acl_ownership (expand)&#45;&gt;[root] module.website_s3_bucket.aws_s3_bucket.s3_bucket (expand)</title>
<path fill="none" stroke="black" d="M1844.82,-215.88C1868.03,-206.26 1897.17,-194.19 1921.75,-184.01"/>
<polygon fill="black" stroke="black" points="1923.37,-187.13 1931.27,-180.07 1920.69,-180.66 1923.37,-187.13"/>
</g>
<!-- [root] module.website_s3_bucket.aws_s3_bucket_policy.s3_bucket (expand) -->
<g id="node4" class="node">
<title>[root] module.website_s3_bucket.aws_s3_bucket_policy.s3_bucket (expand)</title>
<polygon fill="none" stroke="black" points="1015.98,-324 666.98,-324 666.98,-288 1015.98,-288 1015.98,-324"/>
<text text-anchor="middle" x="841.48" y="-302.3" font-family="Times,serif" font-size="14.00">module.website_s3_bucket.aws_s3_bucket_policy.s3_bucket</text>
</g>
<!-- [root] module.website_s3_bucket.null_resource.delay (expand) -->
<g id="node7" class="node">
<title>[root] module.website_s3_bucket.null_resource.delay (expand)</title>
<polygon fill="none" stroke="black" points="662.98,-252 387.98,-252 387.98,-216 662.98,-216 662.98,-252"/>
<text text-anchor="middle" x="525.48" y="-230.3" font-family="Times,serif" font-size="14.00">module.website_s3_bucket.null_resource.delay</text>
</g>
<!-- [root] module.website_s3_bucket.aws_s3_bucket_policy.s3_bucket (expand)&#45;&gt;[root] module.website_s3_bucket.null_resource.delay (expand) -->
<g id="edge14" class="edge">
<title>[root] module.website_s3_bucket.aws_s3_bucket_policy.s3_bucket (expand)&#45;&gt;[root] module.website_s3_bucket.null_resource.delay (expand)</title>
<path fill="none" stroke="black" d="M764.58,-287.97C718.62,-277.78 660.09,-264.82 612.44,-254.26"/>
<polygon fill="black" stroke="black" points="612.97,-250.8 602.45,-252.05 611.45,-257.63 612.97,-250.8"/>
</g>
<!-- [root] module.website_s3_bucket.aws_s3_bucket_public_access_block.s3_bucket_public_access_block (expand) -->
<g id="node5" class="node">
<title>[root] module.website_s3_bucket.aws_s3_bucket_public_access_block.s3_bucket_public_access_block (expand)</title>
<polygon fill="none" stroke="black" points="1580.48,-324 1034.48,-324 1034.48,-288 1580.48,-288 1580.48,-324"/>
<text text-anchor="middle" x="1307.48" y="-302.3" font-family="Times,serif" font-size="14.00">module.website_s3_bucket.aws_s3_bucket_public_access_block.s3_bucket_public_access_block</text>
</g>
<!-- [root] module.website_s3_bucket.aws_s3_bucket_public_access_block.s3_bucket_public_access_block (expand)&#45;&gt;[root] module.website_s3_bucket.aws_s3_bucket.s3_bucket (expand) -->
<g id="edge15" class="edge">
<title>[root] module.website_s3_bucket.aws_s3_bucket_public_access_block.s3_bucket_public_access_block (expand)&#45;&gt;[root] module.website_s3_bucket.aws_s3_bucket.s3_bucket (expand)</title>
<path fill="none" stroke="black" d="M1343.72,-287.98C1388.8,-267.56 1468.62,-233.85 1540.48,-216 1627.33,-194.43 1726.28,-181.47 1807.55,-173.78"/>
<polygon fill="black" stroke="black" points="1808.25,-177.23 1817.88,-172.82 1807.6,-170.26 1808.25,-177.23"/>
</g>
<!-- [root] module.website_s3_bucket.aws_s3_bucket_website_configuration.s3_bucket (expand) -->
<g id="node6" class="node">
<title>[root] module.website_s3_bucket.aws_s3_bucket_website_configuration.s3_bucket (expand)</title>
<polygon fill="none" stroke="black" points="1117.98,-252 680.98,-252 680.98,-216 1117.98,-216 1117.98,-252"/>
<text text-anchor="middle" x="899.48" y="-230.3" font-family="Times,serif" font-size="14.00">module.website_s3_bucket.aws_s3_bucket_website_configuration.s3_bucket</text>
</g>
<!-- [root] module.website_s3_bucket.aws_s3_bucket_website_configuration.s3_bucket (expand)&#45;&gt;[root] module.website_s3_bucket.aws_s3_bucket.s3_bucket (expand) -->
<g id="edge16" class="edge">
<title>[root] module.website_s3_bucket.aws_s3_bucket_website_configuration.s3_bucket (expand)&#45;&gt;[root] module.website_s3_bucket.aws_s3_bucket.s3_bucket (expand)</title>
<path fill="none" stroke="black" d="M1118.23,-218.73C1322.54,-205.4 1622.94,-185.8 1807.69,-173.75"/>
<polygon fill="black" stroke="black" points="1808.02,-177.24 1817.77,-173.09 1807.56,-170.25 1808.02,-177.24"/>
</g>
<!-- [root] module.website_s3_bucket.null_resource.delay (expand)&#45;&gt;[root] module.website_s3_bucket.aws_s3_bucket.s3_bucket (expand) -->
<g id="edge17" class="edge">
<title>[root] module.website_s3_bucket.null_resource.delay (expand)&#45;&gt;[root] module.website_s3_bucket.aws_s3_bucket.s3_bucket (expand)</title>
<path fill="none" stroke="black" d="M663,-216.69C665.85,-216.45 668.68,-216.22 671.48,-216 1079.09,-184.01 1560.15,-170.77 1807.4,-165.75"/>
<polygon fill="black" stroke="black" points="1807.62,-169.25 1817.55,-165.55 1807.48,-162.25 1807.62,-169.25"/>
</g>
<!-- [root] provider[&quot;registry.terraform.io/hashicorp/null&quot;] -->
<g id="node9" class="node">
<title>[root] provider[&quot;registry.terraform.io/hashicorp/null&quot;]</title>
<polygon fill="none" stroke="black" points="525.48,-180 272.94,-162 525.48,-144 778.02,-162 525.48,-180"/>
<text text-anchor="middle" x="525.48" y="-158.3" font-family="Times,serif" font-size="14.00">provider[&quot;registry.terraform.io/hashicorp/null&quot;]</text>
</g>
<!-- [root] module.website_s3_bucket.null_resource.delay (expand)&#45;&gt;[root] provider[&quot;registry.terraform.io/hashicorp/null&quot;] -->
<g id="edge18" class="edge">
<title>[root] module.website_s3_bucket.null_resource.delay (expand)&#45;&gt;[root] provider[&quot;registry.terraform.io/hashicorp/null&quot;]</title>
<path fill="none" stroke="black" d="M525.48,-215.7C525.48,-207.98 525.48,-198.71 525.48,-190.11"/>
<polygon fill="black" stroke="black" points="528.98,-190.1 525.48,-180.1 521.98,-190.1 528.98,-190.1"/>
</g>
<!-- [root] module.website_s3_bucket (close) -->
<g id="node10" class="node">
<title>[root] module.website_s3_bucket (close)</title>
<ellipse fill="none" stroke="black" cx="1836.48" cy="-378" rx="155.17" ry="18"/>
<text text-anchor="middle" x="1836.48" y="-374.3" font-family="Times,serif" font-size="14.00">[root] module.website_s3_bucket (close)</text>
</g>
<!-- [root] module.website_s3_bucket (close)&#45;&gt;[root] module.website_s3_bucket.aws_s3_bucket_acl.s3_bucket_acl (expand) -->
<g id="edge1" class="edge">
<title>[root] module.website_s3_bucket (close)&#45;&gt;[root] module.website_s3_bucket.aws_s3_bucket_acl.s3_bucket_acl (expand)</title>
<path fill="none" stroke="black" d="M1821.71,-360.05C1814.33,-351.58 1805.25,-341.17 1797.1,-331.82"/>
<polygon fill="black" stroke="black" points="1799.74,-329.51 1790.53,-324.28 1794.47,-334.11 1799.74,-329.51"/>
</g>
<!-- [root] module.website_s3_bucket (close)&#45;&gt;[root] module.website_s3_bucket.aws_s3_bucket_policy.s3_bucket (expand) -->
<g id="edge2" class="edge">
<title>[root] module.website_s3_bucket (close)&#45;&gt;[root] module.website_s3_bucket.aws_s3_bucket_policy.s3_bucket (expand)</title>
<path fill="none" stroke="black" d="M1700.44,-369.23C1541.47,-359.89 1270.21,-343.17 1026.41,-324.06"/>
<polygon fill="black" stroke="black" points="1026.53,-320.56 1016.29,-323.27 1025.98,-327.54 1026.53,-320.56"/>
</g>
<!-- [root] module.website_s3_bucket (close)&#45;&gt;[root] module.website_s3_bucket.aws_s3_bucket_public_access_block.s3_bucket_public_access_block (expand) -->
<g id="edge3" class="edge">
<title>[root] module.website_s3_bucket (close)&#45;&gt;[root] module.website_s3_bucket.aws_s3_bucket_public_access_block.s3_bucket_public_access_block (expand)</title>
<path fill="none" stroke="black" d="M1738.22,-364C1656.06,-353.13 1537.9,-337.49 1446.12,-325.35"/>
<polygon fill="black" stroke="black" points="1446.57,-321.87 1436.19,-324.03 1445.65,-328.81 1446.57,-321.87"/>
</g>
<!-- [root] module.website_s3_bucket.output.arn (expand) -->
<g id="node11" class="node">
<title>[root] module.website_s3_bucket.output.arn (expand)</title>
<ellipse fill="none" stroke="black" cx="2171.48" cy="-306" rx="201.46" ry="18"/>
<text text-anchor="middle" x="2171.48" y="-302.3" font-family="Times,serif" font-size="14.00">[root] module.website_s3_bucket.output.arn (expand)</text>
</g>
<!-- [root] module.website_s3_bucket (close)&#45;&gt;[root] module.website_s3_bucket.output.arn (expand) -->
<g id="edge4" class="edge">
<title>[root] module.website_s3_bucket (close)&#45;&gt;[root] module.website_s3_bucket.output.arn (expand)</title>
<path fill="none" stroke="black" d="M1908.35,-361.98C1960.47,-351.09 2031.18,-336.32 2086.17,-324.83"/>
<polygon fill="black" stroke="black" points="2087.17,-328.19 2096.25,-322.72 2085.74,-321.34 2087.17,-328.19"/>
</g>
<!-- [root] module.website_s3_bucket.output.domain (expand) -->
<g id="node12" class="node">
<title>[root] module.website_s3_bucket.output.domain (expand)</title>
<ellipse fill="none" stroke="black" cx="431.48" cy="-306" rx="217.16" ry="18"/>
<text text-anchor="middle" x="431.48" y="-302.3" font-family="Times,serif" font-size="14.00">[root] module.website_s3_bucket.output.domain (expand)</text>
</g>
<!-- [root] module.website_s3_bucket (close)&#45;&gt;[root] module.website_s3_bucket.output.domain (expand) -->
<g id="edge5" class="edge">
<title>[root] module.website_s3_bucket (close)&#45;&gt;[root] module.website_s3_bucket.output.domain (expand)</title>
<path fill="none" stroke="black" d="M1703.04,-368.77C1653.01,-365.81 1595.64,-362.57 1543.48,-360 1149.86,-340.59 1050.92,-346.78 657.48,-324 636.19,-322.77 613.78,-321.29 591.69,-319.74"/>
<polygon fill="black" stroke="black" points="591.79,-316.24 581.57,-319.02 591.29,-323.22 591.79,-316.24"/>
</g>
<!-- [root] module.website_s3_bucket.output.name (expand) -->
<g id="node13" class="node">
<title>[root] module.website_s3_bucket.output.name (expand)</title>
<ellipse fill="none" stroke="black" cx="2600.48" cy="-306" rx="209.86" ry="18"/>
<text text-anchor="middle" x="2600.48" y="-302.3" font-family="Times,serif" font-size="14.00">[root] module.website_s3_bucket.output.name (expand)</text>
</g>
<!-- [root] module.website_s3_bucket (close)&#45;&gt;[root] module.website_s3_bucket.output.name (expand) -->
<g id="edge6" class="edge">
<title>[root] module.website_s3_bucket (close)&#45;&gt;[root] module.website_s3_bucket.output.name (expand)</title>
<path fill="none" stroke="black" d="M1947.17,-365.29C1964.99,-363.48 1983.24,-361.65 2000.48,-360 2151.97,-345.46 2325.13,-330.32 2446.36,-319.97"/>
<polygon fill="black" stroke="black" points="2446.79,-323.44 2456.46,-319.1 2446.2,-316.47 2446.79,-323.44"/>
</g>
<!-- [root] module.website_s3_bucket.output.s3_bucket_region (expand) -->
<g id="node14" class="node">
<title>[root] module.website_s3_bucket.output.s3_bucket_region (expand)</title>
<ellipse fill="none" stroke="black" cx="3081.48" cy="-306" rx="252.66" ry="18"/>
<text text-anchor="middle" x="3081.48" y="-302.3" font-family="Times,serif" font-size="14.00">[root] module.website_s3_bucket.output.s3_bucket_region (expand)</text>
</g>
<!-- [root] module.website_s3_bucket (close)&#45;&gt;[root] module.website_s3_bucket.output.s3_bucket_region (expand) -->
<g id="edge7" class="edge">
<title>[root] module.website_s3_bucket (close)&#45;&gt;[root] module.website_s3_bucket.output.s3_bucket_region (expand)</title>
<path fill="none" stroke="black" d="M1944.02,-364.93C1962.82,-363.08 1982.21,-361.35 2000.48,-360 2363.84,-333.2 2455.67,-343.8 2819.48,-324 2843.99,-322.67 2869.78,-321.14 2895.23,-319.56"/>
<polygon fill="black" stroke="black" points="2895.58,-323.05 2905.34,-318.93 2895.15,-316.06 2895.58,-323.05"/>
</g>
<!-- [root] module.website_s3_bucket.output.url (expand) -->
<g id="node15" class="node">
<title>[root] module.website_s3_bucket.output.url (expand)</title>
<ellipse fill="none" stroke="black" cx="3552.48" cy="-306" rx="200.36" ry="18"/>
<text text-anchor="middle" x="3552.48" y="-302.3" font-family="Times,serif" font-size="14.00">[root] module.website_s3_bucket.output.url (expand)</text>
</g>
<!-- [root] module.website_s3_bucket (close)&#45;&gt;[root] module.website_s3_bucket.output.url (expand) -->
<g id="edge8" class="edge">
<title>[root] module.website_s3_bucket (close)&#45;&gt;[root] module.website_s3_bucket.output.url (expand)</title>
<path fill="none" stroke="black" d="M1942.68,-364.79C1961.9,-362.93 1981.77,-361.22 2000.48,-360 2596.32,-321.19 2747.25,-356.22 3343.48,-324 3363.63,-322.91 3384.85,-321.5 3405.74,-319.95"/>
<polygon fill="black" stroke="black" points="3406.25,-323.42 3415.96,-319.18 3405.72,-316.44 3406.25,-323.42"/>
</g>
<!-- [root] module.website_s3_bucket.output.arn (expand)&#45;&gt;[root] module.website_s3_bucket.aws_s3_bucket.s3_bucket (expand) -->
<g id="edge19" class="edge">
<title>[root] module.website_s3_bucket.output.arn (expand)&#45;&gt;[root] module.website_s3_bucket.aws_s3_bucket.s3_bucket (expand)</title>
<path fill="none" stroke="black" d="M2153.38,-287.8C2133.1,-268.99 2098.84,-238.53 2066.48,-216 2050.39,-204.8 2031.76,-193.9 2015.34,-184.93"/>
<polygon fill="black" stroke="black" points="2016.94,-181.82 2006.48,-180.15 2013.62,-187.98 2016.94,-181.82"/>
</g>
<!-- [root] module.website_s3_bucket.output.domain (expand)&#45;&gt;[root] module.website_s3_bucket.aws_s3_bucket_website_configuration.s3_bucket (expand) -->
<g id="edge20" class="edge">
<title>[root] module.website_s3_bucket.output.domain (expand)&#45;&gt;[root] module.website_s3_bucket.aws_s3_bucket_website_configuration.s3_bucket (expand)</title>
<path fill="none" stroke="black" d="M531.59,-290.03C602.9,-279.36 699.22,-264.95 775.41,-253.56"/>
<polygon fill="black" stroke="black" points="776.17,-256.98 785.55,-252.04 775.14,-250.06 776.17,-256.98"/>
</g>
<!-- [root] module.website_s3_bucket.output.name (expand)&#45;&gt;[root] module.website_s3_bucket.aws_s3_bucket.s3_bucket (expand) -->
<g id="edge21" class="edge">
<title>[root] module.website_s3_bucket.output.name (expand)&#45;&gt;[root] module.website_s3_bucket.aws_s3_bucket.s3_bucket (expand)</title>
<path fill="none" stroke="black" d="M2529.66,-288.99C2413.48,-262.72 2182.85,-210.57 2057.83,-182.3"/>
<polygon fill="black" stroke="black" points="2058.44,-178.85 2047.91,-180.06 2056.89,-185.68 2058.44,-178.85"/>
</g>
<!-- [root] module.website_s3_bucket.output.s3_bucket_region (expand)&#45;&gt;[root] module.website_s3_bucket.aws_s3_bucket.s3_bucket (expand) -->
<g id="edge22" class="edge">
<title>[root] module.website_s3_bucket.output.s3_bucket_region (expand)&#45;&gt;[root] module.website_s3_bucket.aws_s3_bucket.s3_bucket (expand)</title>
<path fill="none" stroke="black" d="M2964.37,-290C2759.56,-263.78 2337.06,-209.68 2115.38,-181.3"/>
<polygon fill="black" stroke="black" points="2115.67,-177.81 2105.3,-180.01 2114.78,-184.75 2115.67,-177.81"/>
</g>
<!-- [root] module.website_s3_bucket.output.url (expand)&#45;&gt;[root] module.website_s3_bucket.aws_s3_bucket.s3_bucket (expand) -->
<g id="edge23" class="edge">
<title>[root] module.website_s3_bucket.output.url (expand)&#45;&gt;[root] module.website_s3_bucket.aws_s3_bucket.s3_bucket (expand)</title>
<path fill="none" stroke="black" d="M3416.4,-292.77C3126.87,-266.75 2450.71,-205.98 2137.34,-177.82"/>
<polygon fill="black" stroke="black" points="2137.53,-174.32 2127.26,-176.91 2136.9,-181.29 2137.53,-174.32"/>
</g>
<!-- [root] module.website_s3_bucket (expand) -->
<g id="node18" class="node">
<title>[root] module.website_s3_bucket (expand)</title>
<ellipse fill="none" stroke="black" cx="2190.48" cy="-18" rx="163.27" ry="18"/>
<text text-anchor="middle" x="2190.48" y="-14.3" font-family="Times,serif" font-size="14.00">[root] module.website_s3_bucket (expand)</text>
</g>
<!-- [root] module.website_s3_bucket.var.bucket_name (expand)&#45;&gt;[root] module.website_s3_bucket (expand) -->
<g id="edge24" class="edge">
<title>[root] module.website_s3_bucket.var.bucket_name (expand)&#45;&gt;[root] module.website_s3_bucket (expand)</title>
<path fill="none" stroke="black" d="M2356.82,-72.41C2324.96,-62.18 2283.97,-49.02 2250.65,-38.32"/>
<polygon fill="black" stroke="black" points="2251.61,-34.95 2241.02,-35.23 2249.47,-41.62 2251.61,-34.95"/>
</g>
<!-- [root] module.website_s3_bucket.var.tags (expand)&#45;&gt;[root] module.website_s3_bucket (expand) -->
<g id="edge25" class="edge">
<title>[root] module.website_s3_bucket.var.tags (expand)&#45;&gt;[root] module.website_s3_bucket (expand)</title>
<path fill="none" stroke="black" d="M2023.59,-72.59C2055.55,-62.33 2096.86,-49.06 2130.38,-38.3"/>
<polygon fill="black" stroke="black" points="2131.61,-41.58 2140.07,-35.19 2129.47,-34.91 2131.61,-41.58"/>
</g>
<!-- [root] output.website_bucket_arn (expand) -->
<g id="node19" class="node">
<title>[root] output.website_bucket_arn (expand)</title>
<ellipse fill="none" stroke="black" cx="2171.48" cy="-378" rx="161.67" ry="18"/>
<text text-anchor="middle" x="2171.48" y="-374.3" font-family="Times,serif" font-size="14.00">[root] output.website_bucket_arn (expand)</text>
</g>
<!-- [root] output.website_bucket_arn (expand)&#45;&gt;[root] module.website_s3_bucket.output.arn (expand) -->
<g id="edge26" class="edge">
<title>[root] output.website_bucket_arn (expand)&#45;&gt;[root] module.website_s3_bucket.output.arn (expand)</title>
<path fill="none" stroke="black" d="M2171.48,-359.7C2171.48,-351.98 2171.48,-342.71 2171.48,-334.11"/>
<polygon fill="black" stroke="black" points="2174.98,-334.1 2171.48,-324.1 2167.98,-334.1 2174.98,-334.1"/>
</g>
<!-- [root] output.website_bucket_domain (expand) -->
<g id="node20" class="node">
<title>[root] output.website_bucket_domain (expand)</title>
<ellipse fill="none" stroke="black" cx="806.48" cy="-378" rx="177.37" ry="18"/>
<text text-anchor="middle" x="806.48" y="-374.3" font-family="Times,serif" font-size="14.00">[root] output.website_bucket_domain (expand)</text>
</g>
<!-- [root] output.website_bucket_domain (expand)&#45;&gt;[root] module.website_s3_bucket.output.domain (expand) -->
<g id="edge27" class="edge">
<title>[root] output.website_bucket_domain (expand)&#45;&gt;[root] module.website_s3_bucket.output.domain (expand)</title>
<path fill="none" stroke="black" d="M725.57,-361.9C666.73,-350.91 586.92,-336.01 525.28,-324.51"/>
<polygon fill="black" stroke="black" points="525.64,-321.02 515.16,-322.62 524.35,-327.9 525.64,-321.02"/>
</g>
<!-- [root] output.website_bucket_name (expand) -->
<g id="node21" class="node">
<title>[root] output.website_bucket_name (expand)</title>
<ellipse fill="none" stroke="black" cx="2560.48" cy="-378" rx="170.07" ry="18"/>
<text text-anchor="middle" x="2560.48" y="-374.3" font-family="Times,serif" font-size="14.00">[root] output.website_bucket_name (expand)</text>
</g>
<!-- [root] output.website_bucket_name (expand)&#45;&gt;[root] module.website_s3_bucket.output.name (expand) -->
<g id="edge28" class="edge">
<title>[root] output.website_bucket_name (expand)&#45;&gt;[root] module.website_s3_bucket.output.name (expand)</title>
<path fill="none" stroke="black" d="M2570.37,-359.7C2574.97,-351.64 2580.54,-341.89 2585.63,-332.98"/>
<polygon fill="black" stroke="black" points="2588.78,-334.52 2590.71,-324.1 2582.71,-331.05 2588.78,-334.52"/>
</g>
<!-- [root] output.website_bucket_region (expand) -->
<g id="node22" class="node">
<title>[root] output.website_bucket_region (expand)</title>
<ellipse fill="none" stroke="black" cx="3001.48" cy="-378" rx="172.77" ry="18"/>
<text text-anchor="middle" x="3001.48" y="-374.3" font-family="Times,serif" font-size="14.00">[root] output.website_bucket_region (expand)</text>
</g>
<!-- [root] output.website_bucket_region (expand)&#45;&gt;[root] module.website_s3_bucket.output.s3_bucket_region (expand) -->
<g id="edge29" class="edge">
<title>[root] output.website_bucket_region (expand)&#45;&gt;[root] module.website_s3_bucket.output.s3_bucket_region (expand)</title>
<path fill="none" stroke="black" d="M3020.85,-360.05C3030.89,-351.26 3043.33,-340.38 3054.32,-330.76"/>
<polygon fill="black" stroke="black" points="3056.79,-333.25 3062.02,-324.03 3052.18,-327.98 3056.79,-333.25"/>
</g>
<!-- [root] output.website_bucket_url (expand) -->
<g id="node23" class="node">
<title>[root] output.website_bucket_url (expand)</title>
<ellipse fill="none" stroke="black" cx="3452.48" cy="-378" rx="160.57" ry="18"/>
<text text-anchor="middle" x="3452.48" y="-374.3" font-family="Times,serif" font-size="14.00">[root] output.website_bucket_url (expand)</text>
</g>
<!-- [root] output.website_bucket_url (expand)&#45;&gt;[root] module.website_s3_bucket.output.url (expand) -->
<g id="edge30" class="edge">
<title>[root] output.website_bucket_url (expand)&#45;&gt;[root] module.website_s3_bucket.output.url (expand)</title>
<path fill="none" stroke="black" d="M3476.69,-360.05C3489.61,-351.01 3505.7,-339.74 3519.73,-329.93"/>
<polygon fill="black" stroke="black" points="3521.96,-332.63 3528.15,-324.03 3517.95,-326.9 3521.96,-332.63"/>
</g>
<!-- [root] provider[&quot;registry.terraform.io/hashicorp/aws&quot;] (close) -->
<g id="node24" class="node">
<title>[root] provider[&quot;registry.terraform.io/hashicorp/aws&quot;] (close)</title>
<ellipse fill="none" stroke="black" cx="1307.48" cy="-378" rx="227.46" ry="18"/>
<text text-anchor="middle" x="1307.48" y="-374.3" font-family="Times,serif" font-size="14.00">[root] provider[&quot;registry.terraform.io/hashicorp/aws&quot;] (close)</text>
</g>
<!-- [root] provider[&quot;registry.terraform.io/hashicorp/aws&quot;] (close)&#45;&gt;[root] module.website_s3_bucket.aws_s3_bucket_acl.s3_bucket_acl (expand) -->
<g id="edge31" class="edge">
<title>[root] provider[&quot;registry.terraform.io/hashicorp/aws&quot;] (close)&#45;&gt;[root] module.website_s3_bucket.aws_s3_bucket_acl.s3_bucket_acl (expand)</title>
<path fill="none" stroke="black" d="M1408.74,-361.85C1479.99,-351.2 1575.78,-336.87 1651.59,-325.53"/>
<polygon fill="black" stroke="black" points="1652.3,-328.96 1661.67,-324.02 1651.27,-322.04 1652.3,-328.96"/>
</g>
<!-- [root] provider[&quot;registry.terraform.io/hashicorp/aws&quot;] (close)&#45;&gt;[root] module.website_s3_bucket.aws_s3_bucket_policy.s3_bucket (expand) -->
<g id="edge32" class="edge">
<title>[root] provider[&quot;registry.terraform.io/hashicorp/aws&quot;] (close)&#45;&gt;[root] module.website_s3_bucket.aws_s3_bucket_policy.s3_bucket (expand)</title>
<path fill="none" stroke="black" d="M1206.65,-361.85C1135.71,-351.2 1040.33,-336.87 964.84,-325.53"/>
<polygon fill="black" stroke="black" points="965.21,-322.05 954.8,-324.02 964.17,-328.97 965.21,-322.05"/>
</g>
<!-- [root] provider[&quot;registry.terraform.io/hashicorp/aws&quot;] (close)&#45;&gt;[root] module.website_s3_bucket.aws_s3_bucket_public_access_block.s3_bucket_public_access_block (expand) -->
<g id="edge33" class="edge">
<title>[root] provider[&quot;registry.terraform.io/hashicorp/aws&quot;] (close)&#45;&gt;[root] module.website_s3_bucket.aws_s3_bucket_public_access_block.s3_bucket_public_access_block (expand)</title>
<path fill="none" stroke="black" d="M1307.48,-359.7C1307.48,-351.98 1307.48,-342.71 1307.48,-334.11"/>
<polygon fill="black" stroke="black" points="1310.98,-334.1 1307.48,-324.1 1303.98,-334.1 1310.98,-334.1"/>
</g>
<!-- [root] provider[&quot;registry.terraform.io/hashicorp/aws&quot;] (close)&#45;&gt;[root] module.website_s3_bucket.aws_s3_bucket_website_configuration.s3_bucket (expand) -->
<g id="edge34" class="edge">
<title>[root] provider[&quot;registry.terraform.io/hashicorp/aws&quot;] (close)&#45;&gt;[root] module.website_s3_bucket.aws_s3_bucket_website_configuration.s3_bucket (expand)</title>
<path fill="none" stroke="black" d="M1127.17,-367.01C1083.12,-364.64 1036.1,-362.17 992.48,-360 948.77,-357.82 235.71,-355.65 205.48,-324 194.43,-312.43 194.61,-299.74 205.48,-288 205.98,-287.45 468.45,-267.53 670.41,-252.27"/>
<polygon fill="black" stroke="black" points="670.88,-255.74 680.59,-251.5 670.35,-248.76 670.88,-255.74"/>
</g>
<!-- [root] provider[&quot;registry.terraform.io/hashicorp/null&quot;] (close) -->
<g id="node25" class="node">
<title>[root] provider[&quot;registry.terraform.io/hashicorp/null&quot;] (close)</title>
<ellipse fill="none" stroke="black" cx="227.48" cy="-378" rx="227.46" ry="18"/>
<text text-anchor="middle" x="227.48" y="-374.3" font-family="Times,serif" font-size="14.00">[root] provider[&quot;registry.terraform.io/hashicorp/null&quot;] (close)</text>
</g>
<!-- [root] provider[&quot;registry.terraform.io/hashicorp/null&quot;] (close)&#45;&gt;[root] module.website_s3_bucket.null_resource.delay (expand) -->
<g id="edge35" class="edge">
<title>[root] provider[&quot;registry.terraform.io/hashicorp/null&quot;] (close)&#45;&gt;[root] module.website_s3_bucket.null_resource.delay (expand)</title>
<path fill="none" stroke="black" d="M204.16,-359.87C181.43,-341.12 152.92,-310.71 172.48,-288 199.34,-256.81 293.39,-243.71 377.65,-238.34"/>
<polygon fill="black" stroke="black" points="378.11,-241.82 387.88,-237.72 377.68,-234.83 378.11,-241.82"/>
</g>
<!-- [root] root -->
<g id="node26" class="node">
<title>[root] root</title>
<ellipse fill="none" stroke="black" cx="2003.48" cy="-450" rx="47.39" ry="18"/>
<text text-anchor="middle" x="2003.48" y="-446.3" font-family="Times,serif" font-size="14.00">[root] root</text>
</g>
<!-- [root] root&#45;&gt;[root] module.website_s3_bucket (close) -->
<g id="edge36" class="edge">
<title>[root] root&#45;&gt;[root] module.website_s3_bucket (close)</title>
<path fill="none" stroke="black" d="M1972.85,-436.16C1948.32,-425.88 1913.44,-411.26 1885.1,-399.38"/>
<polygon fill="black" stroke="black" points="1886.33,-396.1 1875.76,-395.46 1883.63,-402.56 1886.33,-396.1"/>
</g>
<!-- [root] root&#45;&gt;[root] output.website_bucket_arn (expand) -->
<g id="edge37" class="edge">
<title>[root] root&#45;&gt;[root] output.website_bucket_arn (expand)</title>
<path fill="none" stroke="black" d="M2034.29,-436.16C2058.97,-425.88 2094.06,-411.26 2122.57,-399.38"/>
<polygon fill="black" stroke="black" points="2124.08,-402.54 2131.97,-395.46 2121.39,-396.08 2124.08,-402.54"/>
</g>
<!-- [root] root&#45;&gt;[root] output.website_bucket_domain (expand) -->
<g id="edge38" class="edge">
<title>[root] root&#45;&gt;[root] output.website_bucket_domain (expand)</title>
<path fill="none" stroke="black" d="M1956.92,-446.47C1820.72,-439.05 1411.2,-416.56 1071.48,-396 1035.83,-393.84 997.49,-391.43 961.35,-389.12"/>
<polygon fill="black" stroke="black" points="961.43,-385.62 951.22,-388.48 960.98,-392.61 961.43,-385.62"/>
</g>
<!-- [root] root&#45;&gt;[root] output.website_bucket_name (expand) -->
<g id="edge39" class="edge">
<title>[root] root&#45;&gt;[root] output.website_bucket_name (expand)</title>
<path fill="none" stroke="black" d="M2048.12,-443.39C2133.49,-432.66 2322.33,-408.93 2445.36,-393.47"/>
<polygon fill="black" stroke="black" points="2446.09,-396.9 2455.58,-392.18 2445.22,-389.96 2446.09,-396.9"/>
</g>
<!-- [root] root&#45;&gt;[root] output.website_bucket_region (expand) -->
<g id="edge40" class="edge">
<title>[root] root&#45;&gt;[root] output.website_bucket_region (expand)</title>
<path fill="none" stroke="black" d="M2049.61,-445.76C2190.89,-435.86 2621.92,-405.62 2852.41,-389.46"/>
<polygon fill="black" stroke="black" points="2852.82,-392.94 2862.55,-388.74 2852.33,-385.95 2852.82,-392.94"/>
</g>
<!-- [root] root&#45;&gt;[root] output.website_bucket_url (expand) -->
<g id="edge41" class="edge">
<title>[root] root&#45;&gt;[root] output.website_bucket_url (expand)</title>
<path fill="none" stroke="black" d="M2050.43,-447.2C2209.54,-441.03 2742.97,-419.81 3183.48,-396 3223.97,-393.81 3267.87,-391.16 3308.24,-388.6"/>
<polygon fill="black" stroke="black" points="3308.66,-392.08 3318.42,-387.95 3308.22,-385.1 3308.66,-392.08"/>
</g>
<!-- [root] root&#45;&gt;[root] provider[&quot;registry.terraform.io/hashicorp/aws&quot;] (close) -->
<g id="edge42" class="edge">
<title>[root] root&#45;&gt;[root] provider[&quot;registry.terraform.io/hashicorp/aws&quot;] (close)</title>
<path fill="none" stroke="black" d="M1958.08,-444.43C1857.3,-434.3 1611.24,-409.55 1452.27,-393.56"/>
<polygon fill="black" stroke="black" points="1452.23,-390.04 1441.93,-392.52 1451.53,-397.01 1452.23,-390.04"/>
</g>
<!-- [root] root&#45;&gt;[root] provider[&quot;registry.terraform.io/hashicorp/null&quot;] (close) -->
<g id="edge43" class="edge">
<title>[root] root&#45;&gt;[root] provider[&quot;registry.terraform.io/hashicorp/null&quot;] (close)</title>
<path fill="none" stroke="black" d="M1956.31,-447.28C1780.21,-440.82 1144.46,-417.37 620.48,-396 558.83,-393.49 491.75,-390.63 430.75,-387.98"/>
<polygon fill="black" stroke="black" points="430.76,-384.48 420.62,-387.54 430.46,-391.47 430.76,-384.48"/>
</g>
</g>
</svg>
